<svg t="1741772155842" class="icon" viewBox="0 0 1095 1024" version="1.1" xmlns="http://www.w3.org/2000/svg" p-id="21903" width="48" height="48"><path d="M901.06291 693.652a217.585 217.585 0 0 0 88.542-175.1 212.026 212.026 0 1 0-423.655 0 215.997 215.997 0 0 0 88.94 175.1 357.348 357.348 0 0 0-194.953 293.025c0 20.25 10.323 36.132 29.779 36.132h574.933c19.455 0 29.779-15.882 29.779-36.132a359.73 359.73 0 0 0-193.762-293.025z" fill="#4E8CEE" p-id="21904"></path><path d="M556.02291 674.99a299.775 299.775 0 0 1-63.131-227.114 284.29 284.29 0 0 1 110.778-185.82 287.466 287.466 0 0 1 261.658-34.545c77.425 29.382 79.41 60.75 88.543 60.75a35.338 35.338 0 0 0 34.94-35.735v-60.352A185.027 185.027 0 0 0 812.12291 0H176.83791A185.027 185.027 0 0 0 0.14891 192.174V816.34a185.027 185.027 0 0 0 176.689 192.174H317.79091a31.764 31.764 0 0 0 35.734-30.97 210.438 210.438 0 0 1 21.044-79.41 490.758 490.758 0 0 1 75.837-123.484 500.287 500.287 0 0 1 105.616-99.66z m-308.51-520.536h256.894a25.014 25.014 0 0 1 24.22 22.235 28.19 28.19 0 0 1-23.823 32.955H249.49791a24.617 24.617 0 0 1-27.396-25.808 26.206 26.206 0 0 1 25.411-27.794z m-96.88-6.75a34.94 34.94 0 0 1 30.572 17.073 34.544 34.544 0 0 1 0 34.94 34.94 34.94 0 0 1-30.573 17.074 34.544 34.544 0 0 1 0-69.087zM351.93691 650.77h-211.63a30.97 30.97 0 1 1 0-61.543h211.63a30.97 30.97 0 1 1 0 61.543z m71.073-174.306H140.30891c-19.853 0-35.735-10.72-34.94-30.97a31.367 31.367 0 0 1 34.94-30.97H423.01091a31.764 31.764 0 0 1 34.94 30.97 30.97 30.97 0 0 1-34.94 30.97z" fill="#A6C5F6" p-id="21905"></path></svg>